HIERARCHY
ROOT Hips
{
  OFFSET -80.9321 38.9065 -0.408437
  CHANNELS 6 Xposition Yposition Zposition Zrotation Xrotation Yrotation
  JOINT LeftHip
  {
    OFFSET 3.43 0 0
    CHANNELS 6 Xposition Yposition Zposition Zrotation Xrotation Yrotation
    JOINT LeftKnee
    {
      OFFSET 0 -18.47 0
      CHANNELS 6 Xposition Yposition Zposition Zrotation Xrotation Yrotation
      JOINT LeftAnkle
      {
        OFFSET 0 -17.95 0
        CHANNELS 6 Xposition Yposition Zposition Zrotation Xrotation Yrotation
        End Site
        {
          OFFSET 0 -3.12 0
        }
      }
    }
  }
  JOINT RightHip
  {
    OFFSET -3.43 0 0
    CHANNELS 6 Xposition Yposition Zposition Zrotation Xrotation Yrotation
    JOINT RightKnee
    {
      OFFSET 0 -18.47 0
      CHANNELS 6 Xposition Yposition Zposition Zrotation Xrotation Yrotation
      JOINT RightAnkle
      {
        OFFSET 0 -17.95 0
        CHANNELS 6 Xposition Yposition Zposition Zrotation Xrotation Yrotation
        End Site
        {
          OFFSET 0 -3.12 0
        }
      }
    }
  }
  JOINT Chest
  {
    OFFSET 0 4.57 0
    CHANNELS 6 Xposition Yposition Zposition Zrotation Xrotation Yrotation
    JOINT CS_BVH
    {
      OFFSET 0 6.57 0
      CHANNELS 6 Xposition Yposition Zposition Zrotation Xrotation Yrotation
      JOINT LeftCollar
      {
        OFFSET 1.06 4.19 1.76
        CHANNELS 6 Xposition Yposition Zposition Zrotation Xrotation Yrotation
        JOINT LeftShoulder
        {
          OFFSET 5.81 0 0
          CHANNELS 6 Xposition Yposition Zposition Zrotation Xrotation Yrotation
          JOINT LeftElbow
          {
            OFFSET 0 -12.08 0
            CHANNELS 6 Xposition Yposition Zposition Zrotation Xrotation Yrotation
            JOINT LeftWrist
            {
              OFFSET 0 -9.82 0
              CHANNELS 6 Xposition Yposition Zposition Zrotation Xrotation Yrotation
              End Site
              {
                OFFSET 0 -7.37 0
              }
            }
          }
        }
      }
      JOINT RightCollar
      {
        OFFSET -1.06 4.19 1.76
        CHANNELS 6 Xposition Yposition Zposition Zrotation Xrotation Yrotation
        JOINT RightShoulder
        {
          OFFSET -6.06 0 0
          CHANNELS 6 Xposition Yposition Zposition Zrotation Xrotation Yrotation
          JOINT RightElbow
          {
            OFFSET 0 -11.08 0
            CHANNELS 6 Xposition Yposition Zposition Zrotation Xrotation Yrotation
            JOINT RightWrist
            {
              OFFSET 0 -9.82 0
              CHANNELS 6 Xposition Yposition Zposition Zrotation Xrotation Yrotation
              End Site
              {
                OFFSET 0 -7.14001 0
              }
            }
          }
        }
      }
      JOINT Neck
      {
        OFFSET 0 4.05 0
        CHANNELS 6 Xposition Yposition Zposition Zrotation Xrotation Yrotation
        JOINT Head
        {
          OFFSET 0 5.19 0
          CHANNELS 6 Xposition Yposition Zposition Zrotation Xrotation Yrotation
          End Site
          {
            OFFSET 0 4.14001 0
          }
        }
      }
    }
  }
}
MOTION
Frames:	4
Frame Time:	0.0333333
77.5648 34.8726 -0.532 -8.19879 -7.7662 -98.4179 3.43 7.10543e-015 -4.44089e-016 -9.8188 -24.6909 5.04888 1.93623e-013 -18.47 -3.63265e-013 -5.12047 43.987 -2.55217 2.73914e-012 -17.95 -2.68402e-012 0.0469088 -8.73677 -0.261356 -3.43 -1.42109e-014 1.11022e-016 -1.40808 -19.2385 1.56687 2.62901e-013 -18.47 -3.73479e-013 -15.4758 84.928 20.9609 3.49831e-012 -17.95 -3.10685e-012 -7.32604 -1.19826 -0.221321 -2.88658e-015 4.57 1.17684e-014 -11.0861 12.726 2.95916 -1.24345e-014 6.57 1.55431e-015 -2.19159 -2.27812 3.00194 1.06 4.19 1.76 -15.1977 0.425964 14.1602 5.81 -1.42109e-014 1.01807e-013 32.888 -15.0804 -35.247 -1.37845e-012 -12.08 6.00986e-012 -10.4995 -16.1832 -9.13261 -1.63425e-011 -9.82 8.71937e-011 1.50597e-009 -2.26711e-009 3.58188e-010 -1.06 4.19 1.76 7.28434 0.967737 -8.03979 -6.06 1.42109e-014 -3.63043e-014 -22.8604 -6.81773 25.3506 -4.61853e-013 -11.08 -5.69145e-012 7.48782 -8.34319 1.87814 5.41434e-012 -9.82 -9.05812e-011 3.75891e-010 5.92156e-009 6.89894e-011 -2.88658e-014 4.05 2.33147e-014 -2.33606 1.08756 -0.52945 -8.70415e-014 5.19 9.33698e-014 2.01203 -4.9958 -1.32869 
75.5118 35.2064 -0.528974 -8.46514 -7.96549 -97.4851 3.43 7.10543e-015 -4.44089e-016 -10.9611 -20.511 2.731 1.93623e-013 -18.47 -3.63265e-013 -6.44333 42.812 0.189404 2.73914e-012 -17.95 -2.68402e-012 0.0936875 -10.8738 -0.387206 -3.43 -1.42109e-014 1.11022e-016 -0.825567 -24.5661 1.49393 2.62901e-013 -18.47 -3.73479e-013 -19.0278 85.398 24.9418 3.49831e-012 -17.95 -3.10685e-012 -7.46449 -0.589266 0.00304903 -2.88658e-015 4.57 1.17684e-014 -11.7656 13.5526 1.80884 -1.24345e-014 6.57 1.55431e-015 -1.4745 -3.93929 2.23292 1.06 4.19 1.76 -14.6772 0.483617 13.7267 5.81 -1.42109e-014 1.01807e-013 33.5426 -17.3985 -35.5772 -1.37845e-012 -12.08 6.00986e-012 -9.13911 -16.7057 -8.57231 -1.63425e-011 -9.82 8.71937e-011 1.50597e-009 -2.26711e-009 3.58188e-010 -1.06 4.19 1.76 7.85195 0.967507 -8.13541 -6.06 1.42109e-014 -3.63043e-014 -23.2057 -5.66085 24.8367 -4.61853e-013 -11.08 -5.69145e-012 7.30361 -8.32153 2.09784 5.41434e-012 -9.82 -9.05812e-011 3.75891e-010 5.92156e-009 6.89894e-011 -2.88658e-014 4.05 2.33147e-014 -2.34349 1.55849 -0.475308 -8.70415e-014 5.19 9.33698e-014 2.3856 -5.22505 -1.3161 
73.4339 35.745 -0.591419 -8.67742 -7.19315 -96.4493 3.43 7.10543e-015 -4.44089e-016 -10.6115 -15.6004 1.00955 1.93623e-013 -18.47 -3.63265e-013 -7.44005 40.2198 3.07097 2.73914e-012 -17.95 -2.68402e-012 -0.0199788 -12.8168 -0.491335 -3.43 -1.42109e-014 1.11022e-016 0.335985 -28.5839 2.8665 2.62901e-013 -18.47 -3.73479e-013 1.85104 81.5419 4.17213 3.49831e-012 -17.95 -3.10685e-012 -7.70354 -0.301803 0.293858 -2.88658e-015 4.57 1.17684e-014 -11.1702 14.4068 0.61043 -1.24345e-014 6.57 1.55431e-015 -0.72102 -5.6916 1.66407 1.06 4.19 1.76 -13.5587 0.593317 12.8532 5.81 -1.42109e-014 1.01807e-013 34.415 -19.5815 -36.7545 -1.37845e-012 -12.08 6.00986e-012 -8.20509 -18.1458 -8.40434 -1.63425e-011 -9.82 8.71937e-011 1.50597e-009 -2.26711e-009 3.58188e-010 -1.06 4.19 1.76 8.12739 0.963034 -8.29711 -6.06 1.42109e-014 -3.63043e-014 -23.3188 -4.28918 24.4302 -4.61853e-013 -11.08 -5.69145e-012 7.20411 -8.35557 2.28862 5.41434e-012 -9.82 -9.05812e-011 3.75891e-010 5.92156e-009 6.89894e-011 -2.88658e-014 4.05 2.33147e-014 -2.21986 1.3676 -0.613144 -8.70415e-014 5.19 9.33698e-014 2.45933 -5.2674 -1.44171 
71.3864 36.1951 -0.668517 -8.38166 -6.1752 -95.6404 3.43 7.10543e-015 -4.44089e-016 -9.98191 -11.2198 0.405965 1.93623e-013 -18.47 -3.63265e-013 -6.69161 37.5387 5.27821 2.73914e-012 -17.95 -2.68402e-012 -0.688194 -14.1511 -0.602358 -3.43 -1.42109e-014 1.11022e-016 1.38136 -31.6796 4.43979 2.62901e-013 -18.47 -3.73479e-013 8.41323 73.2546 -2.5625 3.49831e-012 -17.95 -3.10685e-012 -7.86811 -0.585241 0.531432 -2.88658e-015 4.57 1.17684e-014 -10.0194 13.8685 -0.361362 -1.24345e-014 6.57 1.55431e-015 -0.172209 -6.19232 1.21368 1.06 4.19 1.76 -12.4325 0.686973 11.7019 5.81 -1.42109e-014 1.01807e-013 35.4003 -21.8965 -37.5973 -1.37845e-012 -12.08 6.00986e-012 -6.79752 -19.3386 -7.92816 -1.63425e-011 -9.82 8.71937e-011 1.50597e-009 -2.26711e-009 3.58188e-010 -1.06 4.19 1.76 8.25177 0.927151 -8.75674 -6.06 1.42109e-014 -3.63043e-014 -23.343 -3.34585 24.1681 -4.61853e-013 -11.08 -5.69145e-012 7.08606 -8.39607 2.51488 5.41434e-012 -9.82 -9.05812e-011 3.75891e-010 5.92156e-009 6.89894e-011 -2.88658e-014 4.05 2.33147e-014 -2.25225 0.496535 -0.760058 -8.70415e-014 5.19 9.33698e-014 3.12474 -5.01366 -1.78637 
